<mxfile modified="2023-12-08T14:23:28.210Z" host="Electron" agent="Mozilla/5.0 (Windows NT 10.0; Win64; x64) AppleWebKit/537.36 (KHTML, like Gecko) draw.io/22.1.2 Chrome/114.0.5735.289 Electron/25.9.4 Safari/537.36" etag="X6CQhhwG_Mn8iebvLfru" version="22.1.2" type="device">
  <diagram id="Ht1M8jgEwFfnCIfOTk4-" name="Page-1">
    <mxGraphModel dx="1050" dy="621" grid="0" gridSize="10" guides="1" tooltips="1" connect="1" arrows="1" fold="1" page="1" pageScale="1" pageWidth="1169" pageHeight="827" math="0" shadow="0">
      <root>
        <mxCell id="0" />
        <mxCell id="1" parent="0" />
        <mxCell id="F1MRYcYMYEmWkwMUcrmx-12" value="" style="rounded=0;whiteSpace=wrap;html=1;fillColor=#f8cecc;strokeColor=#b85450;" vertex="1" parent="1">
          <mxGeometry x="694" y="280" width="123" height="134" as="geometry" />
        </mxCell>
        <mxCell id="F1MRYcYMYEmWkwMUcrmx-7" value="" style="rounded=0;whiteSpace=wrap;html=1;fillColor=#cdeb8b;strokeColor=#36393d;" vertex="1" parent="1">
          <mxGeometry x="695" y="67" width="124" height="140" as="geometry" />
        </mxCell>
        <mxCell id="krSZh34Wx9fjpMopTA68-44" value="" style="rounded=0;whiteSpace=wrap;html=1;fillColor=#f8cecc;strokeColor=#b85450;" parent="1" vertex="1">
          <mxGeometry x="221" y="123" width="32" height="257" as="geometry" />
        </mxCell>
        <mxCell id="krSZh34Wx9fjpMopTA68-31" value="" style="rounded=0;whiteSpace=wrap;html=1;fillColor=#dae8fc;strokeColor=#6c8ebf;" parent="1" vertex="1">
          <mxGeometry x="47.52000000000001" y="179.5" width="140" height="125" as="geometry" />
        </mxCell>
        <mxCell id="krSZh34Wx9fjpMopTA68-29" value="" style="rounded=0;whiteSpace=wrap;html=1;fillColor=#ffe6cc;strokeColor=#d79b00;" parent="1" vertex="1">
          <mxGeometry x="296" y="83" width="178" height="335" as="geometry" />
        </mxCell>
        <mxCell id="krSZh34Wx9fjpMopTA68-25" value="" style="rounded=0;whiteSpace=wrap;html=1;fillColor=#fff2cc;strokeColor=#d6b656;" parent="1" vertex="1">
          <mxGeometry x="492" y="231" width="151" height="186" as="geometry" />
        </mxCell>
        <mxCell id="krSZh34Wx9fjpMopTA68-24" value="" style="rounded=0;whiteSpace=wrap;html=1;fillColor=#d5e8d4;strokeColor=#82b366;" parent="1" vertex="1">
          <mxGeometry x="491" y="60" width="124" height="147" as="geometry" />
        </mxCell>
        <mxCell id="F1MRYcYMYEmWkwMUcrmx-26" style="edgeStyle=orthogonalEdgeStyle;rounded=0;orthogonalLoop=1;jettySize=auto;html=1;" edge="1" parent="1" source="krSZh34Wx9fjpMopTA68-1" target="F1MRYcYMYEmWkwMUcrmx-15">
          <mxGeometry relative="1" as="geometry" />
        </mxCell>
        <mxCell id="F1MRYcYMYEmWkwMUcrmx-27" value="Authorizer" style="edgeLabel;html=1;align=center;verticalAlign=middle;resizable=0;points=[];" vertex="1" connectable="0" parent="F1MRYcYMYEmWkwMUcrmx-26">
          <mxGeometry x="-0.0405" relative="1" as="geometry">
            <mxPoint x="-1" y="12" as="offset" />
          </mxGeometry>
        </mxCell>
        <mxCell id="krSZh34Wx9fjpMopTA68-1" value="&lt;b&gt;API Gateway&lt;/b&gt;&lt;br&gt;api-thunder-rest" style="outlineConnect=0;dashed=0;verticalLabelPosition=bottom;verticalAlign=top;align=center;html=1;shape=mxgraph.aws3.api_gateway;fillColor=#D9A741;gradientColor=none;" parent="1" vertex="1">
          <mxGeometry x="483" y="391" width="42" height="45" as="geometry" />
        </mxCell>
        <mxCell id="krSZh34Wx9fjpMopTA68-37" style="edgeStyle=orthogonalEdgeStyle;rounded=0;orthogonalLoop=1;jettySize=auto;html=1;" parent="1" source="krSZh34Wx9fjpMopTA68-2" target="krSZh34Wx9fjpMopTA68-23" edge="1">
          <mxGeometry relative="1" as="geometry" />
        </mxCell>
        <mxCell id="krSZh34Wx9fjpMopTA68-2" value="lambda-thunder-getMessages" style="outlineConnect=0;dashed=0;verticalLabelPosition=bottom;verticalAlign=top;align=center;html=1;shape=mxgraph.aws3.lambda_function;fillColor=#F58534;gradientColor=none;" parent="1" vertex="1">
          <mxGeometry x="362" y="223" width="46" height="46" as="geometry" />
        </mxCell>
        <mxCell id="krSZh34Wx9fjpMopTA68-40" style="edgeStyle=orthogonalEdgeStyle;rounded=0;orthogonalLoop=1;jettySize=auto;html=1;" parent="1" source="krSZh34Wx9fjpMopTA68-3" target="krSZh34Wx9fjpMopTA68-23" edge="1">
          <mxGeometry relative="1" as="geometry">
            <Array as="points">
              <mxPoint x="236" y="355" />
              <mxPoint x="236" y="246" />
            </Array>
          </mxGeometry>
        </mxCell>
        <mxCell id="krSZh34Wx9fjpMopTA68-3" value="lambda-thunder-postMessages" style="outlineConnect=0;dashed=0;verticalLabelPosition=bottom;verticalAlign=top;align=center;html=1;shape=mxgraph.aws3.lambda_function;fillColor=#F58534;gradientColor=none;" parent="1" vertex="1">
          <mxGeometry x="362" y="319.5" width="46" height="46" as="geometry" />
        </mxCell>
        <mxCell id="krSZh34Wx9fjpMopTA68-8" value="&lt;b&gt;DynamoDB&lt;/b&gt;" style="outlineConnect=0;dashed=0;verticalLabelPosition=bottom;verticalAlign=top;align=center;html=1;shape=mxgraph.aws3.dynamo_db;fillColor=#2E73B8;gradientColor=none;" parent="1" vertex="1">
          <mxGeometry x="37" y="158" width="37" height="46" as="geometry" />
        </mxCell>
        <mxCell id="krSZh34Wx9fjpMopTA68-48" style="edgeStyle=orthogonalEdgeStyle;rounded=0;orthogonalLoop=1;jettySize=auto;html=1;" parent="1" source="krSZh34Wx9fjpMopTA68-11" target="krSZh34Wx9fjpMopTA68-23" edge="1">
          <mxGeometry relative="1" as="geometry">
            <Array as="points">
              <mxPoint x="236" y="137" />
              <mxPoint x="236" y="246" />
            </Array>
          </mxGeometry>
        </mxCell>
        <mxCell id="krSZh34Wx9fjpMopTA68-11" value="lambda-thunder-botmeteo" style="outlineConnect=0;dashed=0;verticalLabelPosition=bottom;verticalAlign=top;align=center;html=1;shape=mxgraph.aws3.lambda_function;fillColor=#F58534;gradientColor=none;" parent="1" vertex="1">
          <mxGeometry x="362" y="114" width="46" height="46" as="geometry" />
        </mxCell>
        <mxCell id="krSZh34Wx9fjpMopTA68-12" value="&lt;b&gt;Cloudwatch Events&lt;/b&gt;" style="outlineConnect=0;dashed=0;verticalLabelPosition=bottom;verticalAlign=top;align=center;html=1;shape=mxgraph.aws3.cloudwatch;fillColor=#759C3E;gradientColor=none;" parent="1" vertex="1">
          <mxGeometry x="590" y="32" width="47" height="40.5" as="geometry" />
        </mxCell>
        <mxCell id="krSZh34Wx9fjpMopTA68-17" style="edgeStyle=orthogonalEdgeStyle;rounded=0;orthogonalLoop=1;jettySize=auto;html=1;" parent="1" source="krSZh34Wx9fjpMopTA68-14" target="krSZh34Wx9fjpMopTA68-11" edge="1">
          <mxGeometry relative="1" as="geometry" />
        </mxCell>
        <mxCell id="krSZh34Wx9fjpMopTA68-14" value="rule-thunder-botmeteo" style="outlineConnect=0;dashed=0;verticalLabelPosition=bottom;verticalAlign=top;align=center;html=1;shape=mxgraph.aws3.event_time_based;fillColor=#759C3E;gradientColor=none;" parent="1" vertex="1">
          <mxGeometry x="520" y="95.5" width="63" height="83" as="geometry" />
        </mxCell>
        <mxCell id="krSZh34Wx9fjpMopTA68-23" value="&lt;font color=&quot;#000000&quot;&gt;dynamodb-all-messages&lt;/font&gt;" style="sketch=0;outlineConnect=0;fillColor=#1ba1e2;strokeColor=#006EAF;dashed=0;verticalLabelPosition=bottom;verticalAlign=top;align=center;html=1;fontSize=12;fontStyle=0;aspect=fixed;pointerEvents=1;shape=mxgraph.aws4.dynamodb_standard_access_table_class;fontColor=#ffffff;" parent="1" vertex="1">
          <mxGeometry x="93" y="220.5" width="49.04" height="51" as="geometry" />
        </mxCell>
        <mxCell id="krSZh34Wx9fjpMopTA68-32" style="edgeStyle=orthogonalEdgeStyle;rounded=0;orthogonalLoop=1;jettySize=auto;html=1;" parent="1" source="krSZh34Wx9fjpMopTA68-26" target="krSZh34Wx9fjpMopTA68-2" edge="1">
          <mxGeometry relative="1" as="geometry">
            <Array as="points">
              <mxPoint x="482" y="266" />
              <mxPoint x="482" y="246" />
            </Array>
          </mxGeometry>
        </mxCell>
        <mxCell id="krSZh34Wx9fjpMopTA68-26" value="GET /messages" style="sketch=0;outlineConnect=0;fillColor=#e3c800;strokeColor=#B09500;dashed=0;verticalLabelPosition=bottom;verticalAlign=top;align=center;html=1;fontSize=12;fontStyle=0;aspect=fixed;pointerEvents=1;shape=mxgraph.aws4.endpoint;fontColor=#000000;" parent="1" vertex="1">
          <mxGeometry x="542" y="245" width="41" height="41" as="geometry" />
        </mxCell>
        <mxCell id="krSZh34Wx9fjpMopTA68-27" value="POST /messages" style="sketch=0;outlineConnect=0;fontColor=#000000;fillColor=#e3c800;strokeColor=#B09500;dashed=0;verticalLabelPosition=bottom;verticalAlign=top;align=center;html=1;fontSize=12;fontStyle=0;aspect=fixed;pointerEvents=1;shape=mxgraph.aws4.endpoint;" parent="1" vertex="1">
          <mxGeometry x="542" y="322" width="41" height="41" as="geometry" />
        </mxCell>
        <mxCell id="krSZh34Wx9fjpMopTA68-30" value="&lt;b&gt;Lambda&lt;/b&gt;" style="outlineConnect=0;dashed=0;verticalLabelPosition=bottom;verticalAlign=top;align=center;html=1;shape=mxgraph.aws3.lambda;fillColor=#F58534;gradientColor=none;" parent="1" vertex="1">
          <mxGeometry x="279" y="60" width="45" height="46" as="geometry" />
        </mxCell>
        <mxCell id="krSZh34Wx9fjpMopTA68-33" style="edgeStyle=orthogonalEdgeStyle;rounded=0;orthogonalLoop=1;jettySize=auto;html=1;entryX=1;entryY=0.5;entryDx=0;entryDy=0;entryPerimeter=0;" parent="1" source="krSZh34Wx9fjpMopTA68-27" target="krSZh34Wx9fjpMopTA68-3" edge="1">
          <mxGeometry relative="1" as="geometry" />
        </mxCell>
        <mxCell id="krSZh34Wx9fjpMopTA68-47" value="&lt;b&gt;IAM Role&lt;br&gt;&lt;/b&gt;role-thunder-dynamodb-full" style="sketch=0;outlineConnect=0;fontColor=#232F3E;gradientColor=none;fillColor=#DD344C;strokeColor=none;dashed=0;verticalLabelPosition=bottom;verticalAlign=top;align=center;html=1;fontSize=12;fontStyle=0;aspect=fixed;pointerEvents=1;shape=mxgraph.aws4.role;" parent="1" vertex="1">
          <mxGeometry x="204" y="365.5" width="65.59" height="37" as="geometry" />
        </mxCell>
        <mxCell id="F1MRYcYMYEmWkwMUcrmx-22" style="edgeStyle=orthogonalEdgeStyle;rounded=0;orthogonalLoop=1;jettySize=auto;html=1;exitX=0;exitY=0.5;exitDx=0;exitDy=0;exitPerimeter=0;" edge="1" parent="1" source="F1MRYcYMYEmWkwMUcrmx-3" target="krSZh34Wx9fjpMopTA68-27">
          <mxGeometry relative="1" as="geometry">
            <Array as="points">
              <mxPoint x="670" y="144" />
              <mxPoint x="670" y="343" />
            </Array>
          </mxGeometry>
        </mxCell>
        <mxCell id="F1MRYcYMYEmWkwMUcrmx-24" style="edgeStyle=orthogonalEdgeStyle;rounded=0;orthogonalLoop=1;jettySize=auto;html=1;exitX=0;exitY=0.5;exitDx=0;exitDy=0;exitPerimeter=0;" edge="1" parent="1" source="F1MRYcYMYEmWkwMUcrmx-3" target="krSZh34Wx9fjpMopTA68-26">
          <mxGeometry relative="1" as="geometry">
            <Array as="points">
              <mxPoint x="670" y="144" />
              <mxPoint x="670" y="266" />
            </Array>
          </mxGeometry>
        </mxCell>
        <mxCell id="F1MRYcYMYEmWkwMUcrmx-3" value="&lt;b&gt;FRONT APP&lt;/b&gt;" style="sketch=0;aspect=fixed;pointerEvents=1;shadow=0;dashed=0;html=1;strokeColor=none;labelPosition=center;verticalLabelPosition=bottom;verticalAlign=top;align=center;fillColor=#000000;shape=mxgraph.azure.computer" vertex="1" parent="1">
          <mxGeometry x="730.5" y="121" width="50" height="45" as="geometry" />
        </mxCell>
        <mxCell id="F1MRYcYMYEmWkwMUcrmx-8" value="&lt;b&gt;S3 Bucket&lt;/b&gt;&lt;br&gt;s3-thunder-web" style="sketch=0;points=[[0,0,0],[0.25,0,0],[0.5,0,0],[0.75,0,0],[1,0,0],[0,1,0],[0.25,1,0],[0.5,1,0],[0.75,1,0],[1,1,0],[0,0.25,0],[0,0.5,0],[0,0.75,0],[1,0.25,0],[1,0.5,0],[1,0.75,0]];outlineConnect=0;fontColor=#232F3E;fillColor=#7AA116;strokeColor=#ffffff;dashed=0;verticalLabelPosition=bottom;verticalAlign=top;align=center;html=1;fontSize=12;fontStyle=0;aspect=fixed;shape=mxgraph.aws4.resourceIcon;resIcon=mxgraph.aws4.s3;" vertex="1" parent="1">
          <mxGeometry x="798" y="45" width="41" height="41" as="geometry" />
        </mxCell>
        <mxCell id="F1MRYcYMYEmWkwMUcrmx-15" value="&lt;b&gt;Cognito&lt;/b&gt;" style="sketch=0;points=[[0,0,0],[0.25,0,0],[0.5,0,0],[0.75,0,0],[1,0,0],[0,1,0],[0.25,1,0],[0.5,1,0],[0.75,1,0],[1,1,0],[0,0.25,0],[0,0.5,0],[0,0.75,0],[1,0.25,0],[1,0.5,0],[1,0.75,0]];outlineConnect=0;fontColor=#232F3E;fillColor=#DD344C;strokeColor=#ffffff;dashed=0;verticalLabelPosition=bottom;verticalAlign=top;align=center;html=1;fontSize=12;fontStyle=0;aspect=fixed;shape=mxgraph.aws4.resourceIcon;resIcon=mxgraph.aws4.cognito;" vertex="1" parent="1">
          <mxGeometry x="670" y="393" width="42" height="42" as="geometry" />
        </mxCell>
        <mxCell id="F1MRYcYMYEmWkwMUcrmx-17" value="&lt;font color=&quot;#000000&quot;&gt;cognito-thunder-users&lt;/font&gt;" style="outlineConnect=0;dashed=0;verticalLabelPosition=bottom;verticalAlign=top;align=center;html=1;shape=mxgraph.aws3.users;fillColor=#e51400;strokeColor=#B20000;fontColor=#ffffff;" vertex="1" parent="1">
          <mxGeometry x="731.5" y="319.5" width="48" height="45" as="geometry" />
        </mxCell>
        <mxCell id="F1MRYcYMYEmWkwMUcrmx-18" style="edgeStyle=orthogonalEdgeStyle;rounded=0;orthogonalLoop=1;jettySize=auto;html=1;entryX=0.5;entryY=0.2;entryDx=0;entryDy=0;entryPerimeter=0;" edge="1" parent="1" source="F1MRYcYMYEmWkwMUcrmx-3" target="F1MRYcYMYEmWkwMUcrmx-17">
          <mxGeometry relative="1" as="geometry" />
        </mxCell>
        <mxCell id="F1MRYcYMYEmWkwMUcrmx-20" value="Login / Register / Verify" style="edgeLabel;html=1;align=center;verticalAlign=middle;resizable=0;points=[];" vertex="1" connectable="0" parent="F1MRYcYMYEmWkwMUcrmx-18">
          <mxGeometry x="-0.2862" y="2" relative="1" as="geometry">
            <mxPoint x="-2" y="22" as="offset" />
          </mxGeometry>
        </mxCell>
      </root>
    </mxGraphModel>
  </diagram>
</mxfile>
